<?xml version="1.0" encoding="utf-8"?>
<!-- Svg Vector Icons : http://www.onlinewebfonts.com/icon -->
<!DOCTYPE svg PUBLIC "-//W3C//DTD SVG 1.1//EN" "http://www.w3.org/Graphics/SVG/1.1/DTD/svg11.dtd">
<svg version="1.1" xmlns="http://www.w3.org/2000/svg" xmlns:xlink="http://www.w3.org/1999/xlink" x="0px" y="0px" viewBox="0 0 1000 1000" enable-background="new 0 0 1000 1000" xml:space="preserve">
<metadata> Svg Vector Icons : http://www.onlinewebfonts.com/icon </metadata>
<g><g transform="translate(0.000000,511.000000) scale(0.100000,-0.100000)"><path d="M4831,4998c-208.5-53.2-425.2-233.1-505-421.1c-55.2-126.7-73.6-296.4-40.9-376.2c42.9-104.3,179.9-151.3,292.3-100.2c63.4,28.6,94,81.8,116.5,208.5c24.5,126.8,71.6,196.3,165.6,243.3c92,49.1,190.1,47,296.4-6.1c165.6-79.7,220.8-269.8,124.7-435.4c-63.4-110.4-126.8-153.3-269.8-175.8c-92-14.3-134.9-32.7-167.6-71.5c-42.9-49.1-47-73.6-47-318.9c0-194.2-6.1-267.8-24.5-273.9c-14.3-4.1-243.3-18.4-507-30.7c-535.6-24.5-811.6-57.2-1114.2-137c-717.6-186-1208.2-566.3-1512.8-1169.4c-155.4-310.7-251.5-758.5-337.3-1576.2c-126.8-1236.8-243.3-3217.8-220.8-3794.3c8.2-210.6,16.3-259.6,55.2-321c79.7-130.8,245.3-257.6,482.5-372.1c915.9-445.7,2592.2-721.6,3931.3-648.1c1420.8,79.7,2770.1,423.2,3191.2,811.6c204.4,192.2,196.3,126.8,169.7,1351.3c-45,1874.7-116.5,3052.2-231,3749.4c-137,840.2-539.7,1435.1-1193.9,1762.2c-443.6,222.8-864.8,306.7-1717.3,345.5c-280.1,12.3-523.3,24.5-535.6,28.6c-18.4,6.1-26.6,51.1-26.6,132.9V3526l118.6,59.3c419.1,214.7,562.2,748.2,298.5,1110.1c-83.8,116.5-229,226.9-355.7,271.9C5151.9,5008.2,4933.2,5022.5,4831,4998z M5849.1,2892.3c697.1-24.5,1040.6-81.8,1398.3-233.1c515.2-216.7,862.7-629.7,1014-1204.1c153.3-584.7,286.2-2377.6,329.1-4471l14.3-646l-100.2-65.4c-257.6-163.5-733.9-343.4-1245-464.1c-1443.3-345.5-2935.7-351.6-4389.2-20.4c-621.5,143.1-1044.7,335.3-1371.8,623.5l-96.1,85.9v462c0,848.4,92,2535,194.2,3551c69.5,695.1,128.8,979.2,257.6,1257.3c282.1,603.1,840.2,950.6,1729.5,1075.3C4031.6,2904.5,4935.2,2925,5849.1,2892.3z"/><path d="M4896.4,2561.1c-49.1-36.8-139-102.2-198.3-145.1l-108.4-77.7l194.2-208.5l192.2-206.5l-194.2-210.6l-194.2-208.5L4788,510.6c126.7-625.6,206.5-981.3,216.7-956.8c18.4,47,384.3,1884.9,384.3,1936c0,20.4-71.5,112.4-159.5,204.4c-243.3,253.5-241.2,206.5-26.6,433.4c102.2,108.3,186,202.4,186,210.6c-2,12.3-376.1,288.3-392.5,288.3C4992.5,2626.5,4947.5,2597.9,4896.4,2561.1z"/><path d="M4060.3,2589.7c-200.4-10.2-543.8-69.5-703.3-120.6c-267.8-83.8-431.4-179.9-617.4-363.9c-318.9-316.9-417-615.4-609.2-1829.7c-167.6-1067.2-359.8-2725.1-359.8-3121.7c0-98.1,6.1-110.4,71.6-159.5c190.1-145.1,689-218.8,821.8-120.6c30.7,22.5,67.5,73.6,81.8,112.4c28.6,85.9,100.2,621.5,222.8,1643.7c98.1,836.1,100.2,815.7,18.4-552c-81.8-1386.1-96.1-1797-71.6-1852.2c49.1-106.3,243.3-196.3,566.3-261.7c793.2-159.5,2414.4-149.2,3129.9,18.4c231,55.2,359.8,114.5,435.4,200.4l63.4,71.5l-12.3,237.2c-8.2,130.8-26.6,509-42.9,840.2c-18.4,331.2-51.1,899.5-73.6,1263.4c-22.5,363.9-38.9,684.9-34.8,715.5c4.1,30.7,51.1-331.2,104.2-803.4c108.3-958.8,171.7-1416.7,206.5-1521c40.9-122.7,110.4-155.4,325-153.3c212.6,2.1,462,71.5,582.6,163.5c59.3,47.1,65.4,61.3,65.4,157.4c0,394.6-206.5,2162.9-370,3183.1c-184,1157.1-284.2,1451.5-601.1,1770.4c-182,182-341.4,276-613.3,361.9c-179.9,55.2-502.9,112.4-695.1,118.6l-122.7,6.1L5421.8,453.4c-224.9-1177.6-415-2140.4-421.1-2140.4s-194.2,958.8-419.1,2132.3c-222.8,1171.4-410.9,2134.3-417.1,2140.4C4158.4,2591.7,4111.4,2593.8,4060.3,2589.7z M6963.2,439V275.5h-572.4h-572.4V439v163.5h572.4h572.4V439z M3072.8-587.2c-6.1-14.3-10.2-4.1-10.2,24.5c0,28.6,4.1,38.8,10.2,26.6C3076.9-550.4,3076.9-575,3072.8-587.2z M6936.7-587.2c-6.1-14.3-10.2-4.1-10.2,24.5c0,28.6,4.1,38.8,10.2,26.6C6940.8-550.4,6940.8-575,6936.7-587.2z"/></g></g>
</svg>